<svg xmlns="http://www.w3.org/2000/svg" version="1.1" xmlns:xlink="http://www.w3.org/1999/xlink" xmlns:svgjs="http://svgjs.com/svgjs" width="1440" height="560" preserveAspectRatio="none" viewBox="0 0 1440 560">
  <g mask="url(&quot;#SvgjsMask1006&quot;)" fill="none">
    <rect width="1440" height="560" x="0" y="0" fill="#4DB6AC"></rect>
    <path d="M0 0L242.71 0L0 115.72z" fill="rgba(255, 255, 255, .1)"></path>
    <path d="M0 115.72L242.71 0L774.0400000000001 0L0 347.61z" fill="rgba(255, 255, 255, .075)"></path>
    <path d="M0 347.61L774.0400000000001 0L1003.5600000000001 0L0 471.39z" fill="rgba(255, 255, 255, .05)"></path>
    <path d="M0 471.39L1003.5600000000001 0L1226.18 0L0 529.38z" fill="rgba(255, 255, 255, .025)"></path>
    <path d="M1440 560L1228.48 560L1440 317.71000000000004z" fill="rgba(0, 0, 0, .1)"></path>
    <path d="M1440 317.71000000000004L1228.48 560L642.21 560L1440 284.41z" fill="rgba(0, 0, 0, .075)"></path>
    <path d="M1440 284.41L642.21 560L605.69 560L1440 240.28000000000003z" fill="rgba(0, 0, 0, .05)"></path>
    <path d="M1440 240.28000000000003L605.69 560L328.14000000000004 560L1440 137.14000000000004z" fill="rgba(0, 0, 0, .025)"></path>
  </g>
  <defs>
    <mask id="SvgjsMask1006">
      <rect width="1440" height="560" fill="#ffffff"></rect>
    </mask>
  </defs>
</svg>